<svg width="145" height="24" viewBox="0 0 145 24" fill="none" xmlns="http://www.w3.org/2000/svg">
<path d="M1.45567 23C1.221 23 1.03967 22.936 0.911669 22.808C0.783669 22.6587 0.719669 22.4773 0.719669 22.264V1.368C0.719669 1.13333 0.783669 0.951999 0.911669 0.823999C1.03967 0.674665 1.221 0.599998 1.45567 0.599998H3.08767C3.32234 0.599998 3.50367 0.674665 3.63167 0.823999C3.781 0.951999 3.85567 1.13333 3.85567 1.368V10.2H14.8637V1.368C14.8637 1.13333 14.9277 0.951999 15.0557 0.823999C15.205 0.674665 15.3863 0.599998 15.5997 0.599998H17.2317C17.4663 0.599998 17.6477 0.674665 17.7757 0.823999C17.925 0.951999 17.9997 1.13333 17.9997 1.368V22.264C17.9997 22.4773 17.925 22.6587 17.7757 22.808C17.6477 22.936 17.4663 23 17.2317 23H15.5997C15.3863 23 15.205 22.936 15.0557 22.808C14.9277 22.6587 14.8637 22.4773 14.8637 22.264V13.08H3.85567V22.264C3.85567 22.4773 3.781 22.6587 3.63167 22.808C3.50367 22.936 3.32234 23 3.08767 23H1.45567ZM27.7562 23.32C26.6895 23.32 25.7188 23.1067 24.8442 22.68C23.9695 22.2533 23.2655 21.6773 22.7322 20.952C22.1988 20.2267 21.9322 19.4053 21.9322 18.488C21.9322 17.016 22.5295 15.8427 23.7242 14.968C24.9188 14.0933 26.4762 13.5173 28.3962 13.24L33.1642 12.568V11.64C33.1642 10.616 32.8655 9.816 32.2682 9.24C31.6922 8.664 30.7428 8.376 29.4202 8.376C28.4602 8.376 27.6815 8.568 27.0842 8.952C26.5082 9.336 26.1028 9.82667 25.8682 10.424C25.7402 10.744 25.5162 10.904 25.1962 10.904H23.7562C23.5215 10.904 23.3402 10.84 23.2122 10.712C23.1055 10.5627 23.0522 10.392 23.0522 10.2C23.0522 9.88 23.1695 9.48533 23.4042 9.016C23.6602 8.54667 24.0442 8.088 24.5562 7.64C25.0682 7.192 25.7188 6.81867 26.5082 6.52C27.3188 6.2 28.3002 6.04 29.4522 6.04C30.7322 6.04 31.8095 6.21067 32.6842 6.552C33.5588 6.872 34.2415 7.30933 34.7322 7.864C35.2442 8.41867 35.6068 9.048 35.8202 9.752C36.0548 10.456 36.1722 11.1707 36.1722 11.896V22.264C36.1722 22.4773 36.0975 22.6587 35.9482 22.808C35.8202 22.936 35.6495 23 35.4362 23H33.9642C33.7295 23 33.5482 22.936 33.4202 22.808C33.2922 22.6587 33.2282 22.4773 33.2282 22.264V20.888C32.9508 21.272 32.5775 21.656 32.1082 22.04C31.6388 22.4027 31.0522 22.712 30.3482 22.968C29.6442 23.2027 28.7802 23.32 27.7562 23.32ZM28.4282 20.92C29.3028 20.92 30.1028 20.7387 30.8282 20.376C31.5535 19.992 32.1188 19.4053 32.5242 18.616C32.9508 17.8267 33.1642 16.8347 33.1642 15.64V14.744L29.4522 15.288C27.9375 15.5013 26.7962 15.864 26.0282 16.376C25.2602 16.8667 24.8762 17.496 24.8762 18.264C24.8762 18.8613 25.0468 19.3627 25.3882 19.768C25.7508 20.152 26.1988 20.44 26.7322 20.632C27.2868 20.824 27.8522 20.92 28.4282 20.92ZM48.9964 23.32C47.7164 23.32 46.6498 23.096 45.7964 22.648C44.9431 22.1787 44.2604 21.6027 43.7484 20.92V22.264C43.7484 22.4773 43.6738 22.6587 43.5244 22.808C43.3964 22.936 43.2258 23 43.0124 23H41.5404C41.3271 23 41.1458 22.936 40.9964 22.808C40.8684 22.6587 40.8044 22.4773 40.8044 22.264V1.016C40.8044 0.802666 40.8684 0.631999 40.9964 0.504C41.1458 0.354666 41.3271 0.279999 41.5404 0.279999H43.0764C43.3111 0.279999 43.4924 0.354666 43.6204 0.504C43.7484 0.631999 43.8124 0.802666 43.8124 1.016V8.376C44.3458 7.71467 45.0284 7.16 45.8604 6.712C46.7138 6.264 47.7591 6.04 48.9964 6.04C50.1911 6.04 51.2044 6.25333 52.0364 6.68C52.8898 7.08533 53.5831 7.65067 54.1164 8.376C54.6711 9.10133 55.0871 9.92267 55.3644 10.84C55.6418 11.7573 55.7911 12.7173 55.8124 13.72C55.8338 14.0613 55.8444 14.3813 55.8444 14.68C55.8444 14.9787 55.8338 15.2987 55.8124 15.64C55.7911 16.664 55.6418 17.6347 55.3644 18.552C55.0871 19.4693 54.6711 20.2907 54.1164 21.016C53.5831 21.72 52.8898 22.2853 52.0364 22.712C51.2044 23.1173 50.1911 23.32 48.9964 23.32ZM48.3244 20.728C49.4338 20.728 50.2978 20.4933 50.9164 20.024C51.5564 19.5333 52.0151 18.904 52.2924 18.136C52.5698 17.3467 52.7298 16.504 52.7724 15.608C52.7938 14.9893 52.7938 14.3707 52.7724 13.752C52.7298 12.856 52.5698 12.024 52.2924 11.256C52.0151 10.4667 51.5564 9.83733 50.9164 9.368C50.2978 8.87733 49.4338 8.632 48.3244 8.632C47.3218 8.632 46.4898 8.86667 45.8284 9.336C45.1671 9.80533 44.6658 10.4027 44.3244 11.128C44.0044 11.8533 43.8338 12.5893 43.8124 13.336C43.7911 13.6773 43.7804 14.0933 43.7804 14.584C43.7804 15.0533 43.7911 15.4587 43.8124 15.8C43.8551 16.5893 44.0258 17.368 44.3244 18.136C44.6444 18.8827 45.1244 19.5013 45.7644 19.992C46.4258 20.4827 47.2791 20.728 48.3244 20.728ZM60.5397 23C60.3263 23 60.145 22.936 59.9957 22.808C59.8677 22.6587 59.8037 22.4773 59.8037 22.264V7.096C59.8037 6.88267 59.8677 6.712 59.9957 6.584C60.145 6.43467 60.3263 6.36 60.5397 6.36H62.0757C62.289 6.36 62.4597 6.43467 62.5877 6.584C62.7157 6.712 62.7797 6.88267 62.7797 7.096V22.264C62.7797 22.4773 62.7157 22.6587 62.5877 22.808C62.4597 22.936 62.289 23 62.0757 23H60.5397ZM60.2837 3.256C60.0703 3.256 59.889 3.192 59.7397 3.064C59.6117 2.91467 59.5477 2.73333 59.5477 2.52V0.792C59.5477 0.578665 59.6117 0.407998 59.7397 0.279999C59.889 0.130666 60.0703 0.0559998 60.2837 0.0559998H62.2997C62.513 0.0559998 62.6837 0.130666 62.8117 0.279999C62.961 0.407998 63.0357 0.578665 63.0357 0.792V2.52C63.0357 2.73333 62.961 2.91467 62.8117 3.064C62.6837 3.192 62.513 3.256 62.2997 3.256H60.2837ZM74.0497 23C72.855 23 71.8843 22.776 71.1377 22.328C70.391 21.8587 69.847 21.208 69.5057 20.376C69.1643 19.5227 68.9937 18.52 68.9937 17.368V8.92H66.4977C66.2843 8.92 66.103 8.856 65.9537 8.728C65.8257 8.57867 65.7617 8.39733 65.7617 8.184V7.096C65.7617 6.88267 65.8257 6.712 65.9537 6.584C66.103 6.43467 66.2843 6.36 66.4977 6.36H68.9937V1.016C68.9937 0.802666 69.0577 0.631999 69.1857 0.504C69.335 0.354666 69.5163 0.279999 69.7297 0.279999H71.2337C71.447 0.279999 71.6177 0.354666 71.7457 0.504C71.895 0.631999 71.9697 0.802666 71.9697 1.016V6.36H75.9377C76.151 6.36 76.3217 6.43467 76.4497 6.584C76.599 6.712 76.6737 6.88267 76.6737 7.096V8.184C76.6737 8.39733 76.599 8.57867 76.4497 8.728C76.3217 8.856 76.151 8.92 75.9377 8.92H71.9697V17.144C71.9697 18.1467 72.1403 18.936 72.4817 19.512C72.823 20.088 73.431 20.376 74.3057 20.376H76.2577C76.471 20.376 76.6417 20.4507 76.7697 20.6C76.919 20.728 76.9937 20.8987 76.9937 21.112V22.264C76.9937 22.4773 76.919 22.6587 76.7697 22.808C76.6417 22.936 76.471 23 76.2577 23H74.0497Z" fill="#A2064F"/>
<path d="M80.9497 23C80.7363 23 80.555 22.9253 80.4057 22.776C80.2563 22.6267 80.1817 22.4453 80.1817 22.232V1.4C80.1817 1.16533 80.2563 0.973332 80.4057 0.823999C80.555 0.674665 80.7363 0.599998 80.9497 0.599998H83.4137C83.7123 0.599998 83.9257 0.674665 84.0537 0.823999C84.203 0.951999 84.299 1.048 84.3417 1.112L93.5577 15.448V1.4C93.5577 1.16533 93.6217 0.973332 93.7497 0.823999C93.899 0.674665 94.091 0.599998 94.3257 0.599998H97.0137C97.2483 0.599998 97.4403 0.674665 97.5897 0.823999C97.739 0.973332 97.8137 1.16533 97.8137 1.4V22.2C97.8137 22.4347 97.739 22.6267 97.5897 22.776C97.4403 22.9253 97.259 23 97.0457 23H94.5497C94.251 23 94.0377 22.9253 93.9097 22.776C93.7817 22.6267 93.6857 22.5307 93.6217 22.488L84.4377 8.472V22.232C84.4377 22.4453 84.363 22.6267 84.2137 22.776C84.0643 22.9253 83.8723 23 83.6377 23H80.9497ZM109.783 23.32C108.076 23.32 106.636 23.0213 105.463 22.424C104.311 21.8267 103.425 20.984 102.807 19.896C102.209 18.808 101.868 17.5387 101.783 16.088C101.761 15.704 101.751 15.2347 101.751 14.68C101.751 14.1253 101.761 13.656 101.783 13.272C101.868 11.8 102.22 10.5307 102.839 9.464C103.479 8.376 104.375 7.53333 105.527 6.936C106.7 6.33867 108.119 6.04 109.783 6.04C111.447 6.04 112.855 6.33867 114.007 6.936C115.18 7.53333 116.076 8.376 116.695 9.464C117.335 10.5307 117.697 11.8 117.783 13.272C117.804 13.656 117.815 14.1253 117.815 14.68C117.815 15.2347 117.804 15.704 117.783 16.088C117.697 17.5387 117.345 18.808 116.727 19.896C116.129 20.984 115.244 21.8267 114.071 22.424C112.919 23.0213 111.489 23.32 109.783 23.32ZM109.783 20.152C110.913 20.152 111.788 19.8 112.407 19.096C113.025 18.3707 113.367 17.3147 113.431 15.928C113.452 15.608 113.463 15.192 113.463 14.68C113.463 14.168 113.452 13.752 113.431 13.432C113.367 12.0667 113.025 11.0213 112.407 10.296C111.788 9.57067 110.913 9.208 109.783 9.208C108.652 9.208 107.777 9.57067 107.159 10.296C106.54 11.0213 106.199 12.0667 106.135 13.432C106.113 13.752 106.103 14.168 106.103 14.68C106.103 15.192 106.113 15.608 106.135 15.928C106.199 17.3147 106.54 18.3707 107.159 19.096C107.777 19.8 108.652 20.152 109.783 20.152ZM125.435 23C125.137 23 124.913 22.9253 124.763 22.776C124.614 22.6267 124.486 22.4347 124.379 22.2L119.803 7.352C119.782 7.24533 119.771 7.14933 119.771 7.064C119.771 6.872 119.835 6.712 119.963 6.584C120.113 6.43467 120.273 6.36 120.443 6.36H122.811C123.067 6.36 123.27 6.43467 123.419 6.584C123.569 6.712 123.654 6.84 123.675 6.968L126.811 17.56L130.139 7.064C130.182 6.91467 130.278 6.76533 130.427 6.616C130.577 6.44533 130.801 6.36 131.099 6.36H132.699C132.998 6.36 133.222 6.44533 133.371 6.616C133.521 6.76533 133.617 6.91467 133.659 7.064L136.987 17.56L140.123 6.968C140.145 6.84 140.219 6.712 140.347 6.584C140.497 6.43467 140.699 6.36 140.955 6.36H143.323C143.515 6.36 143.675 6.43467 143.803 6.584C143.953 6.712 144.027 6.872 144.027 7.064C144.027 7.14933 144.006 7.24533 143.963 7.352L139.387 22.2C139.323 22.4347 139.206 22.6267 139.035 22.776C138.886 22.9253 138.662 23 138.363 23H136.283C135.985 23 135.75 22.9253 135.579 22.776C135.409 22.6267 135.291 22.4347 135.227 22.2L131.899 12.088L128.571 22.2C128.486 22.4347 128.358 22.6267 128.187 22.776C128.038 22.9253 127.803 23 127.483 23H125.435Z" fill="#D91E53"/>
</svg>
